<svg width="358" height="436" viewBox="0 0 358 436" fill="none" xmlns="http://www.w3.org/2000/svg">
<g filter="url(#filter0_d)">
<rect x="18" y="15" width="322" height="400" rx="16" fill="white"/>
</g>
<rect opacity="0.05" x="19" y="15" width="320" height="400" rx="16" fill="#276ED8"/>
<g opacity="0.2">
<path d="M127.107 145.253L112.296 136.361C112.146 136.271 111.965 136.257 111.811 136.324C111.656 136.391 111.553 136.529 111.534 136.691L110.405 145.988L96.4545 137.612C96.305 137.522 96.1239 137.508 95.9693 137.575C95.8168 137.643 95.7115 137.781 95.6928 137.942L93.0109 160.053C92.9884 160.23 92.996 160.263 93.1498 160.374C93.3036 160.486 93.4294 160.361 93.5955 160.287L109.308 153.466L117.371 149.966L126.927 145.816C127.096 145.743 127.279 145.734 127.285 145.554C127.292 145.375 127.27 145.351 127.107 145.253Z" fill="#84B5FF"/>
<path d="M114.405 124.683C115.703 127.217 114.673 130.177 112.102 131.292C109.532 132.407 106.394 131.257 105.096 128.723C103.798 126.189 104.829 123.23 107.399 122.115C109.97 120.998 113.107 122.149 114.405 124.683Z" fill="#84B5FF"/>
<path d="M191.17 85.0788L199 86.5515V93.5713L191.17 94.9212C190.569 97.8052 189.427 100.505 187.857 102.898L192.348 109.489L187.378 114.459L180.886 109.869C178.493 111.44 175.805 112.569 172.909 113.17L171.436 121H164.416L163.066 113.17C160.182 112.569 157.482 111.428 155.089 109.857L148.511 114.348L143.541 109.378L148.131 102.886C146.56 100.493 145.431 97.793 144.83 94.9089L137 93.4363V86.4165L144.83 85.0665C145.431 82.1702 146.572 79.4826 148.143 77.0895L143.651 70.5115L148.622 65.5412L155.126 70.131C157.519 68.5602 160.219 67.4188 163.103 66.8298L164.576 59H171.596L172.946 66.8298C175.842 67.4311 178.53 68.5724 180.923 70.1433L187.501 65.6516L192.471 70.6219L187.881 77.114C189.44 79.4949 190.569 82.1825 191.17 85.0788ZM168 75.4572C159.974 75.4572 153.469 81.9739 153.469 89.9877C153.469 98.0016 159.974 104.518 168 104.518C176.026 104.518 182.53 98.0139 182.53 89.9877C182.53 81.9616 176.026 75.4572 168 75.4572Z" fill="#84B5FF"/>
<path d="M237.145 217.754L217.869 207C216.623 206.256 216 205.106 216 203.551C216 201.928 216.656 200.778 217.967 200.101L237.145 189.246V193.203C237.145 193.473 237.047 193.845 236.85 194.319C236.653 194.725 236.358 195.029 235.965 195.232L222.295 202.942C221.77 203.348 221.77 203.754 222.295 204.159L237.145 212.377V217.754Z" fill="#84B5FF"/>
<path d="M253.564 186H257.4L247.86 219.681C247.598 220.56 247.008 221 246.09 221H243.631L253.564 186Z" fill="#84B5FF"/>
<path d="M263.591 189.246L282.768 200.101C284.145 200.845 284.834 201.995 284.834 203.551C284.834 205.106 284.145 206.222 282.768 206.899L263.591 217.754V213.797C263.591 213.594 263.656 213.256 263.787 212.783C263.984 212.309 264.279 211.971 264.672 211.768L278.441 204.159C278.966 203.754 278.966 203.348 278.441 202.942L263.591 194.623V189.246Z" fill="#84B5FF"/>
</g>
<path d="M200.876 78.0766L137.911 104.203C135.859 105.055 134.786 107.085 135.518 108.734L156.692 156.407C157.425 158.057 159.659 158.642 161.678 157.715L223.617 129.279C225.46 128.433 226.385 126.475 225.687 124.904L205.527 79.5151C204.83 77.9446 202.749 77.2997 200.876 78.0766Z" fill="#276ED8"/>
<g opacity="0.5" filter="url(#filter1_d)">
<path d="M204.44 79.9693L224.614 125.392C225.09 126.463 224.463 127.794 223.207 128.371L194.755 141.409L161.226 156.775C159.853 157.405 158.306 157.018 157.807 155.895L136.652 108.262C136.153 107.141 136.91 105.747 138.307 105.167L201.265 78.9925C202.324 78.5527 203.482 78.7775 204.117 79.4783C204.246 79.6231 204.359 79.7868 204.44 79.9693Z" fill="white"/>
</g>
<path d="M201.194 89.9263L201.844 91.3874L205.44 89.8599L204.792 88.4026L201.194 89.9263Z" fill="white"/>
<path d="M150.528 114.44L143.697 117.362L143 115.793L149.835 112.878L150.528 114.44Z" fill="white"/>
<path d="M187.741 98.5215L154.912 112.565L154.22 111.008L187.066 97L187.741 98.5215Z" fill="white"/>
<path d="M163.596 114.947L156.875 117.837L156.184 116.28L162.908 113.397L163.596 114.947Z" fill="white"/>
<path d="M200.216 99.2023L167.909 113.093L167.223 111.547L199.546 97.6914L200.216 99.2023Z" fill="white"/>
<path d="M157.084 127.444L150.269 130.405L149.572 128.835L156.39 125.883L157.084 127.444Z" fill="white"/>
<path d="M194.205 111.32L161.456 125.546L160.764 123.988L193.529 109.798L194.205 111.32Z" fill="white"/>
<path d="M170.124 126.891L163.42 129.818L162.729 128.261L169.436 125.341L170.124 126.891Z" fill="white"/>
<path d="M206.653 110.942L174.425 125.013L173.739 123.467L205.983 109.431L206.653 110.942Z" fill="white"/>
<path d="M213.197 112.131L186.892 123.791L186.211 122.257L212.528 110.626L213.197 112.131Z" fill="white"/>
<path d="M163.565 143.791L156.795 146.852L156.098 145.282L162.871 142.229L163.565 143.791Z" fill="white"/>
<path d="M200.441 127.117L167.908 141.827L167.216 140.27L199.765 125.594L200.441 127.117Z" fill="white"/>
<path d="M176.531 143.073L169.871 146.099L169.18 144.542L175.843 141.523L176.531 143.073Z" fill="white"/>
<path d="M212.82 126.583L180.804 141.131L180.118 139.586L212.149 125.073L212.82 126.583Z" fill="white"/>
<path d="M204.439 79.9692L224.614 125.392C225.089 126.463 224.462 127.794 223.207 128.371L194.756 141.409L173.326 93.1585L204.127 79.4729C204.258 79.6177 204.358 79.7867 204.439 79.9692Z" fill="white"/>
<path d="M200.876 78.076L137.911 104.203C135.859 105.054 134.786 107.084 135.518 108.734L136.47 110.877L206.434 81.5557L205.527 79.5152C204.83 77.944 202.749 77.2983 200.876 78.076Z" fill="#276ED8"/>
<path d="M141.747 105.799C141.986 106.337 141.697 106.973 141.1 107.22C140.504 107.468 139.825 107.232 139.586 106.694C139.346 106.155 139.638 105.519 140.235 105.272C140.832 105.025 141.509 105.262 141.747 105.799Z" fill="white"/>
<path d="M145.525 104.236C145.763 104.772 145.476 105.406 144.883 105.651C144.289 105.897 143.615 105.662 143.377 105.125C143.138 104.588 143.426 103.954 144.021 103.709C144.613 103.465 145.286 103.701 145.525 104.236Z" fill="white"/>
<path d="M149.279 102.683C149.516 103.217 149.231 103.849 148.642 104.093C148.052 104.337 147.381 104.102 147.143 103.567C146.906 103.032 147.191 102.4 147.781 102.157C148.372 101.913 149.042 102.148 149.279 102.683Z" fill="white"/>
<path opacity="0.35" d="M180.741 105.691L207.145 94.465C207.235 94.4265 207.306 94.3541 207.341 94.2628C207.377 94.1715 207.374 94.0697 207.335 93.9799L203.635 85.65C203.554 85.4667 203.342 85.3822 203.157 85.4584L176.658 96.4707C176.57 96.5077 176.499 96.5793 176.464 96.6698C176.429 96.7604 176.431 96.8614 176.471 96.9512L180.268 105.501C180.349 105.683 180.56 105.768 180.741 105.691Z" fill="#84B5FF"/>
<path opacity="0.35" d="M208.961 98.1649L182.321 109.599C182.233 109.637 182.164 109.708 182.13 109.797C182.096 109.887 182.099 109.987 182.138 110.075L193.999 136.781C194.039 136.871 194.114 136.942 194.205 136.978C194.297 137.013 194.399 137.011 194.488 136.97L220.843 124.895C221.023 124.813 221.103 124.602 221.022 124.42L209.445 98.3549C209.363 98.1709 209.147 98.0857 208.961 98.1649Z" fill="#84B5FF"/>
<path d="M127.307 156L118 177L132 175.988L127.307 156Z" fill="#195BBE"/>
<path d="M237.884 154.919V225.442L177.222 228.997L177.091 228.999L173.152 188.89L177.082 147.208L177.223 147.216L237.884 154.919Z" fill="#276ED8"/>
<path d="M176.994 147.208V228.999L127.338 223.404V155.882L137.451 154.108L155.277 150.997L176.994 147.208Z" fill="#3E85EE"/>
<path d="M176.961 147.209L204.122 172.551L256.998 175.522L237.62 154.919L176.961 147.209Z" fill="#195BBE"/>
<path d="M253.057 141.763C252.528 142.012 251.967 142.094 251.433 142L200.037 132.945C199.326 132.82 198.732 132.42 198.366 131.817C197.98 131.181 197.89 130.369 198.12 129.59L206.821 100.159L262.986 111.652L254.793 139.723C254.531 140.61 253.882 141.373 253.057 141.763Z" fill="#2DA531"/>
<path d="M207.658 101.541L199.299 129.82C199.021 130.759 199.505 131.645 200.378 131.799L251.766 140.853C252.553 140.992 253.404 140.384 253.667 139.494L261.585 112.706L207.658 101.541Z" fill="white"/>
<path d="M263.103 108.093L210.039 96.9346C209.143 96.7456 208.19 97.3516 207.915 98.2882L207.061 101.179L263.282 112.746L264.091 110.008C264.352 109.119 263.91 108.263 263.103 108.093Z" fill="#06B25F"/>
<path opacity="0.2" d="M213.156 129.096L209.269 128.439L215.475 107.948L219.339 108.684L213.156 129.096Z" fill="#A7CFFF"/>
<path d="M213.116 128.873L209.238 128.217L211.824 119.36L215.697 120.036L213.116 128.873Z" fill="#84B5FF"/>
<path opacity="0.2" d="M223.651 131.29L219.845 130.648L225.985 110.374L229.767 111.095L223.651 131.29Z" fill="#A7CFFF"/>
<path d="M223.532 131.29L219.73 130.648L223.574 117.583L227.357 118.287L223.532 131.29Z" fill="#84B5FF"/>
<path opacity="0.2" d="M233.92 133.438L230.194 132.809L236.27 112.75L239.972 113.455L233.92 133.438Z" fill="#A7CFFF"/>
<path d="M233.966 133.108L230.242 132.479L235.432 115.34L239.136 116.035L233.966 133.108Z" fill="#84B5FF"/>
<path opacity="0.2" d="M243.978 135.542L240.33 134.925L246.342 115.076L249.968 115.767L243.978 135.542Z" fill="#A7CFFF"/>
<path d="M243.74 135.201L240.106 134.585L242.186 127.706L245.813 128.348L243.74 135.201Z" fill="#84B5FF"/>
<defs>
<filter id="filter0_d" x="0" y="0" width="358" height="436" filterUnits="userSpaceOnUse" color-interpolation-filters="sRGB">
<feFlood flood-opacity="0" result="BackgroundImageFix"/>
<feColorMatrix in="SourceAlpha" type="matrix" values="0 0 0 0 0 0 0 0 0 0 0 0 0 0 0 0 0 0 127 0" result="hardAlpha"/>
<feMorphology radius="2" operator="dilate" in="SourceAlpha" result="effect1_dropShadow"/>
<feOffset dy="3"/>
<feGaussianBlur stdDeviation="8"/>
<feColorMatrix type="matrix" values="0 0 0 0 0.113976 0 0 0 0 0.199896 0 0 0 0 0.420833 0 0 0 0.15 0"/>
<feBlend mode="normal" in2="BackgroundImageFix" result="effect1_dropShadow"/>
<feBlend mode="normal" in="SourceGraphic" in2="effect1_dropShadow" result="shape"/>
</filter>
<filter id="filter1_d" x="124.498" y="70.7668" width="112.275" height="102.31" filterUnits="userSpaceOnUse" color-interpolation-filters="sRGB">
<feFlood flood-opacity="0" result="BackgroundImageFix"/>
<feColorMatrix in="SourceAlpha" type="matrix" values="0 0 0 0 0 0 0 0 0 0 0 0 0 0 0 0 0 0 127 0" result="hardAlpha"/>
<feOffset dy="4"/>
<feGaussianBlur stdDeviation="6"/>
<feColorMatrix type="matrix" values="0 0 0 0 0.160784 0 0 0 0 0.0941176 0 0 0 0 0.435294 0 0 0 0.15 0"/>
<feBlend mode="normal" in2="BackgroundImageFix" result="effect1_dropShadow"/>
<feBlend mode="normal" in="SourceGraphic" in2="effect1_dropShadow" result="shape"/>
</filter>
</defs>
</svg>
