<svg width="328" height="390" viewBox="0 0 328 390" fill="none" xmlns="http://www.w3.org/2000/svg">
<mask id="mask0" style="mask-type:alpha" maskUnits="userSpaceOnUse" x="4" y="0" width="320" height="382">
<rect x="4" width="320" height="382" rx="16" fill="#3D27C7"/>
</mask>
<g mask="url(#mask0)">
<path opacity="0.1" d="M193.973 189.801L182.157 185.172L181.756 185.015L169.94 180.386C169.94 180.386 169.284 221.449 87.4471 357.058L106.069 365.041L113.551 368.343L132.408 376.845C164.459 221.729 193.973 189.801 193.973 189.801Z" fill="#84B5FF"/>
<path opacity="0.5" d="M187.103 180.745L182.385 179.825L182.758 178.873L179.189 176.007C179.189 176.007 108.107 377.293 79.2266 401.06L77.4316 407.958L89.1637 414.455L91.7343 414.523L103.553 419.46L106.63 419.607C101.581 382.548 187.103 180.745 187.103 180.745Z" fill="white"/>
<g filter="url(#filter0_d)">
<path d="M205.975 176.997C201.508 188.946 173.372 206.418 173.372 206.418C173.372 206.418 164.143 173.314 168.61 161.365C173.077 149.415 182.669 149.633 192.987 153.95C203.304 158.266 210.442 165.047 205.975 176.997Z" fill="#06B25F"/>
<path opacity="0.5" d="M201.349 172.105C198.255 180.364 177.698 195.293 177.698 195.293C177.698 195.293 172.374 169.564 175.469 161.303C178.564 153.044 185.208 153.194 192.354 156.177C199.5 159.16 204.444 163.846 201.349 172.105Z" fill="#66D6A0"/>
<path d="M197.753 165.737C195.947 170.534 182.486 183.089 182.486 183.089C182.486 183.089 180.841 164.263 182.648 159.466C184.454 154.669 188.332 154.756 192.503 156.487C196.674 158.219 199.56 160.94 197.753 165.737Z" fill="#66D6A0"/>
<path d="M192.832 119.02C192.832 119.02 161.984 120.187 152.411 146.592C152.411 146.592 153.01 150.181 156.917 147.803C160.821 145.423 166.607 136.812 183.454 143.836L192.832 119.02Z" fill="#A6CAFF"/>
<path d="M217.504 130.982C217.504 130.982 239.515 154.189 229.941 180.594C229.941 180.594 227.238 182.806 225.856 178.223C224.476 173.64 225.634 163.099 208.787 156.075L217.504 130.982Z" fill="#84B5FF"/>
<path d="M245.763 109.073C249.827 98.1452 251.473 86.9786 251.575 76.6721L226.261 66.4332L222.866 75.5617C232.232 79.35 237.431 88.8546 234.479 96.7904C231.528 104.726 221.543 108.092 212.176 104.303L195 150.488L211.567 157.189C224.314 149.275 237.352 131.687 245.763 109.073Z" fill="#276ED8"/>
<path d="M202.3 84.0713C205.251 76.1355 215.236 72.7721 224.6 76.5594L227.995 67.431L202.683 57.193C196.092 64.8753 190.09 74.2801 186.026 85.2075C177.616 107.822 175.873 129.979 180.169 144.786L196.734 151.486L213.911 105.299C204.548 101.512 199.349 92.0071 202.3 84.0713Z" fill="#3E85EE"/>
<path d="M179.66 147.734C179.28 147.573 178.877 147.722 178.76 148.064L177.763 150.966C177.645 151.31 177.857 151.717 178.237 151.878L192.73 158.018L194.155 153.871L179.661 147.732L179.66 147.734Z" fill="#3E85EE"/>
<path d="M208.053 159.708L193.572 153.574L192.148 157.721L206.629 163.855C207.009 164.016 207.411 163.868 207.53 163.525L208.526 160.623C208.646 160.28 208.433 159.87 208.053 159.708Z" fill="#276ED8"/>
<path d="M229.061 94.9347C231.023 89.3726 227.593 82.6873 221.4 80L215.193 101.501C221.383 104.187 227.1 100.495 229.061 94.9347Z" fill="#84B5FF"/>
<path d="M207.556 86.0842C205.592 91.6544 209.025 98.3494 215.225 101.041L222.336 80.8721C216.138 78.1819 209.519 80.5141 207.556 86.0842Z" fill="#A6CAFF"/>
<path d="M229.052 94.0756C227.027 99.6443 220.626 100.054 215.22 100.526L213.536 105.158C220.275 106.596 231.785 106.584 234.761 96.247C237.715 88.1216 232.753 79.4743 223.703 75.7114L220.715 79.4433C226.913 82.0226 231.077 88.5069 229.052 94.0756Z" fill="#06B25F"/>
<path d="M202.309 83.8562C199.326 92.0617 204.268 101.47 214.249 105.635L215.949 100.958C209.736 98.3739 205.431 91.6308 207.475 86.0071C209.519 80.3835 216.211 77.9199 222.423 80.5037L224.123 75.8266C215.06 72.0525 205.292 75.6486 202.309 83.8562Z" fill="#66D6A0"/>
<path d="M241.082 32L229 65.2804L252.987 75.3462C253.32 52.6575 246.323 34.199 241.082 32Z" fill="#84B5FF"/>
<path d="M241.067 32.0649C235.829 29.8668 219.049 38.3475 205 55.2803L228.985 65.3452L241.067 32.0649Z" fill="#A6CAFF"/>
</g>
<path opacity="0.07" d="M142.752 348.539C136.383 338.841 127.649 330.379 116.883 324.189C82.856 304.627 41.4197 315.091 24.3286 347.561C24.2541 347.702 24.1796 347.844 24.1051 347.985C28.2458 356.894 31.2009 366.204 32.9512 375.605L211.641 478.334L283.303 387.271C275.851 379.001 252.108 354.896 241.95 349.056C208.975 330.091 171.054 331.147 142.752 348.539Z" fill="#276ED8"/>
<path d="M94.5723 401.063C92.3783 385.054 87.7464 370.818 80.4907 359.364C59.5951 326.344 22.4541 325.022 -14.7876 350.66C-15.3589 334.602 -18.9121 320.349 -25.7324 309.558C-29.234 304.017 -33.3928 299.747 -38.0413 296.67C-38.6377 314.515 -43.7069 334.862 -53.316 354.867L44.1449 411.02L95.3626 440.529C96.4865 426.631 96.2444 413.328 94.5723 401.063Z" fill="white" fill-opacity="0.3"/>
<path opacity="0.07" d="M71.4946 377.153C71.2801 363.653 66.3467 352.385 56.9853 347.048L56.8672 346.981C57.3278 346.174 57.7805 345.363 58.2204 344.538C74.9301 313.18 72.2234 278.497 52.1744 267.067C45.8273 263.449 38.5064 262.601 30.9311 264.118C35.5693 234.223 27.6984 207.643 8.26723 196.565C2.51817 193.288 -3.79551 191.618 -10.4068 191.413L-82.5281 326.755L25.441 388.307L63.7011 410.119C69.0971 398.934 71.6565 387.401 71.4946 377.153Z" fill="#276ED8"/>
<path opacity="0.6" d="M140.012 363.063C129.701 349.347 115.267 340.437 99.8222 339.97L99.6275 339.964C99.5916 338.892 99.5426 337.819 99.4673 336.738C96.6038 295.687 67.4699 261.6 34.3922 260.599C23.9204 260.282 14.3176 263.324 6.16314 268.923C-10.4052 235.819 -39.8365 212.791 -71.8949 211.82C-81.38 211.533 -90.3599 213.196 -98.615 216.516L-86.2559 393.698L91.8766 399.089L155 401C153.287 386.659 147.839 373.476 140.012 363.063Z" fill="white"/>
<path opacity="0.07" d="M69.6432 389.127C65.5055 372.807 54.6413 361.211 38.5538 358.732L38.3538 358.699C38.8397 357.521 39.3198 356.34 39.777 355.146C56.9799 309.87 42.9969 268.843 8.53248 263.524C-2.37964 261.842 -14.0281 263.945 -25.4037 269.035C-25.9564 251.266 -30.4956 235.516 -38.5377 223.212L-92.089 323.595L70.5622 417.018C72.1061 406.885 71.7425 397.391 69.6432 389.127Z" fill="#276ED8"/>
<path opacity="0.6" d="M293.615 347.06C285.996 340.022 276.521 334.388 265.68 330.968C231.421 320.166 196.522 335.517 187.741 365.242C187.505 366.023 187.306 366.813 187.116 367.601L186.917 367.539C170.925 362.497 154.765 364.128 142.179 370.795C132.625 375.859 125.131 383.822 121.323 393.963L186.713 414.578L321.431 457.04L387.808 333.487C385.983 332.799 384.131 332.16 382.247 331.567C349.041 321.096 315.408 328.06 293.615 347.06Z" fill="white"/>
</g>
<defs>
<filter id="filter0_d" x="140.411" y="23.7231" width="124.588" height="198.695" filterUnits="userSpaceOnUse" color-interpolation-filters="sRGB">
<feFlood flood-opacity="0" result="BackgroundImageFix"/>
<feColorMatrix in="SourceAlpha" type="matrix" values="0 0 0 0 0 0 0 0 0 0 0 0 0 0 0 0 0 0 127 0" result="hardAlpha"/>
<feOffset dy="4"/>
<feGaussianBlur stdDeviation="6"/>
<feColorMatrix type="matrix" values="0 0 0 0 0.160784 0 0 0 0 0.0941176 0 0 0 0 0.435294 0 0 0 0.2 0"/>
<feBlend mode="normal" in2="BackgroundImageFix" result="effect1_dropShadow"/>
<feBlend mode="normal" in="SourceGraphic" in2="effect1_dropShadow" result="shape"/>
</filter>
</defs>
</svg>
