<svg width="177" height="359" viewBox="0 0 177 359" fill="none" xmlns="http://www.w3.org/2000/svg">
<path d="M108.067 107.909C110.533 110.745 115.076 110.99 118.228 108.455L127.266 101.169C130.418 98.6344 130.97 94.2694 128.504 91.4333C126.039 88.5973 121.495 88.3531 118.344 90.8872L108.813 101.165C105.67 103.705 105.601 105.073 108.067 107.909Z" fill="#DEC29B"/>
<path d="M116.175 123.426C119.087 125.618 123.475 125.017 125.961 122.093L133.121 113.692C135.615 110.767 135.271 106.622 132.359 104.43C129.447 102.238 125.059 102.839 122.574 105.763L115.547 117.028C113.044 119.955 113.255 121.236 116.175 123.426Z" fill="#DEC29B"/>
<path d="M122.084 133.834C124.775 135.526 128.542 134.726 130.507 132.051L136.131 124.349C138.094 121.666 137.501 118.119 134.809 116.427C132.118 114.735 128.35 115.535 126.386 118.21L121.081 128.371C119.117 131.046 119.392 132.142 122.084 133.834Z" fill="#DEC29B"/>
<path d="M157.676 100.728C157.676 100.728 132.135 105.442 129.772 105.977C127.4 106.513 113.956 93.1365 120.021 88.0907C130.441 79.3896 157.676 100.728 157.676 100.728Z" fill="#D3AF85"/>
<path d="M158.451 101.617C158.451 101.617 132.669 106.411 130.284 106.955C127.89 107.5 157.898 137.814 160.552 124.99C163.214 112.164 158.451 101.617 158.451 101.617Z" fill="#DEC29B"/>
<path d="M102.473 96.0613C104.833 98.9726 109.357 99.353 112.58 96.9071L121.832 89.885C125.055 87.4392 125.75 83.0928 123.39 80.1815C121.031 77.2702 116.507 76.8899 113.284 79.3357L103.45 89.3375C100.225 91.7753 100.113 93.1501 102.473 96.0613Z" fill="#EAD7B7"/>
<path d="M110.37 85.4629C110.556 89.1758 113.908 91.8429 117.851 91.4273L139.851 88.7442C143.795 88.3286 146.844 84.9774 146.657 81.2645C146.471 77.5516 143.12 74.8845 139.176 75.3001C139.176 75.3001 128.007 77.1488 117.176 77.9832C113.226 78.2857 110.184 81.75 110.37 85.4629Z" fill="#EAD7B7"/>
<path d="M131.966 80.0155C129.011 84.0441 129.02 87.4506 132.438 90.7317C136.262 94.4081 139.888 97.8608 144.809 98.4755C147.506 107.649 156.879 109.823 156.879 109.823C160.928 112.382 167.987 108.471 170.942 104.442C173.897 100.413 173.016 95.0662 168.966 92.508C168.966 92.508 157.258 86.3245 144.648 77.3539C140.765 74.582 134.929 75.9853 131.966 80.0155Z" fill="#EAD7B7"/>
<path d="M113.429 81.0222L113.503 80.984C115.948 79.7322 118.695 79.4411 121.236 80.151C123.777 80.8609 125.813 82.4925 126.959 84.7322L129.692 89.9724L120.285 91.146L112.466 97.0827C111.929 97.4945 111.346 97.8232 110.745 98.0802L108.667 94.0865C106.315 89.4767 108.444 83.6172 113.429 81.0222Z" fill="#DEC29B"/>
<path d="M165.271 93.9096C159.04 94.5864 155.369 104.795 151.111 107.358C137.435 115.59 144.561 142.36 144.561 142.36C142.799 151.825 148.316 163.663 158.435 168.236C170.398 173.643 181.153 166.062 180.435 152.59L177.435 102.084C177.165 96.6449 174.061 94.932 170.043 93.1095L165.271 93.9096Z" fill="#EAD7B7"/>
<g filter="url(#filter0_d)">
<path d="M24.8441 149.456C24.3869 149.538 23.9658 149.298 23.8247 148.888C23.8272 148.832 23.8201 148.777 23.8119 148.714L19.4954 116.034C19.4378 114.691 20.0379 114.584 20.5606 114.481C21.2559 114.356 22.5808 114.351 24.9392 115.023L28.0139 115.882L27.9679 115.528C29.0582 115.593 30.1701 115.524 31.2751 115.326C38.7977 113.961 44.1296 107.066 43.1934 99.9387C42.2499 92.8312 35.4013 88.1336 27.9143 89.4731C26.7808 89.6759 25.6935 90.0095 24.6597 90.454L24.6102 90.0735L21.8982 92.0047C20.3825 93.0916 19.0555 93.7554 18.0744 93.9309C17.341 94.0622 17.0555 93.8908 16.8867 93.7171C16.6751 93.5139 16.5125 93.163 16.4167 92.7259L12.1321 60.2905C12.125 60.2361 12.1168 60.1727 12.1002 60.1201C12.1306 59.679 12.4715 59.3028 12.9276 59.212L47.2582 53.0048C49.0289 52.5304 50.2576 51.5598 50.7891 50.2504C51.4318 48.6709 51.0429 46.7291 49.6462 44.4577L49.7129 44.4458L48.7886 43.1837C47.831 41.8906 47.2307 40.4222 47.0223 38.8188C46.2826 33.2785 50.447 27.8988 56.2848 26.8451C62.1429 25.797 67.4825 29.4577 68.2126 34.9997C68.4199 36.594 68.2295 38.2038 67.6548 39.7805L67.0931 41.3084L67.1598 41.2965C66.3357 44.1042 66.4388 46.0971 67.4607 47.3603C68.0406 48.0722 69.2084 48.8829 71.4871 48.642L105.98 42.4058C106.504 42.3121 106.985 42.643 107.059 43.1395L111.369 75.7652C111.956 78.3297 113.819 79.5443 116.363 79.0892C117.477 78.8898 118.744 78.3665 120.144 77.5135L120.152 77.5769L121.527 76.6079C122.937 75.6049 124.507 74.9348 126.193 74.6331C132.051 73.585 137.391 77.2457 138.121 82.7878C138.48 85.4764 137.705 88.2105 135.961 90.4689C134.209 92.7381 131.688 94.2644 128.859 94.7706C127.164 95.0739 125.506 94.9906 123.907 94.5351L122.348 94.091L122.356 94.1545C120.682 93.7959 119.299 93.7282 118.137 93.9361C115.65 94.3809 114.291 96.1443 114.418 98.7725L118.748 131.552C118.812 132.05 118.437 132.535 117.913 132.628L83.4489 138.86C82.044 139 81.9699 138.429 81.8956 137.932C81.8096 137.271 81.8888 136.006 82.7372 133.685L83.8271 130.672L83.4461 130.74C83.5809 129.678 83.5788 128.612 83.4411 127.553C82.4976 120.445 75.6489 115.747 68.162 117.087C60.6382 118.442 55.3075 125.347 56.2437 132.474C56.3815 133.534 56.6598 134.55 57.0584 135.517L56.6679 135.587L58.5023 138.077C59.5324 139.477 60.1496 140.702 60.2709 141.635C60.3604 142.323 60.1648 142.618 59.9729 142.791C59.7464 142.998 59.3712 143.186 58.8996 143.307L24.8441 149.456Z" fill="#06B25F"/>
</g>
<path d="M57.3504 85.5757L64.1363 69.5371L68.081 74.2701L64.0667 84.2938L69.7593 91.0932L66.9877 97.1082L57.3504 85.5757Z" fill="white"/>
<path d="M68.9788 75.4702L66.5607 81.4177L67.812 82.5503L74.1747 81.3359L68.9788 75.4702Z" fill="white"/>
<path d="M69.0718 88.8244L65.1272 84.0914L81.3876 80.9878L92.2761 93.6529L85.9133 94.8674L78.9695 86.9352L69.0718 88.8244Z" fill="white"/>
<path d="M78.0521 88.1389L72.0428 89.2859L67.8854 98.3083L57.2808 100.332L54.815 105.946L72.1836 102.974L78.0521 88.1389Z" fill="white"/>
<path d="M80.5547 90.4042L78.0803 90.8765L75.6622 96.824L84.4994 95.1372L80.5547 90.4042Z" fill="white"/>
<path d="M65.0294 96.1104L61.1324 91.7112L57.4435 98.9298L64.1598 97.6479L65.0294 96.1104Z" fill="white"/>
<path d="M126.638 134.265L118.343 110.217L109.923 94.1723C107.808 90.0637 109.727 84.8923 114.215 82.6173C118.703 80.3422 124.061 81.8226 126.176 85.9312L133.249 99.4031L149.787 122.519C152.626 126.989 149.562 133.672 142.733 137.132C135.913 140.598 128.642 139.17 126.638 134.265Z" fill="#EAD7B7"/>
<path d="M128.633 148.434C132.782 171.036 157.848 176.037 171.029 169.18C184.21 162.323 180.061 147.027 179.361 127.11C178.974 116.077 161.542 135.668 143.718 114.976C134.292 115.732 128.04 119.372 122.623 122.193C122.632 122.191 125.198 129.759 128.633 148.434Z" fill="#EAD7B7"/>
<path d="M180.898 159.962C178.471 175.72 181.793 180.258 183.97 184.418L154.27 199.879C154.27 199.879 155.476 183.982 139.528 166.32C164.493 157.021 180.898 159.962 180.898 159.962Z" fill="#EAD7B7"/>
<path d="M222.839 302.713L182.206 172.914L150.308 190.327L180.763 340.749L222.839 302.713Z" fill="#276ED8"/>
<defs>
<filter id="filter0_d" x="0.100159" y="18.666" width="150.107" height="146.806" filterUnits="userSpaceOnUse" color-interpolation-filters="sRGB">
<feFlood flood-opacity="0" result="BackgroundImageFix"/>
<feColorMatrix in="SourceAlpha" type="matrix" values="0 0 0 0 0 0 0 0 0 0 0 0 0 0 0 0 0 0 127 0" result="hardAlpha"/>
<feOffset dy="4"/>
<feGaussianBlur stdDeviation="6"/>
<feColorMatrix type="matrix" values="0 0 0 0 0.160784 0 0 0 0 0.0941176 0 0 0 0 0.435294 0 0 0 0.25 0"/>
<feBlend mode="normal" in2="BackgroundImageFix" result="effect1_dropShadow"/>
<feBlend mode="normal" in="SourceGraphic" in2="effect1_dropShadow" result="shape"/>
</filter>
</defs>
</svg>
