<svg width="193" height="306" viewBox="0 0 193 306" fill="none" xmlns="http://www.w3.org/2000/svg">
<path d="M59.1425 138.467L55.6665 128.512C54.6476 126.446 52.7019 124.952 50.8013 124.578C46.0708 122.86 39.5699 120.434 35.2834 118.836C34.242 117.932 32.738 117.513 31.339 117.356C30.999 117.232 30.8141 117.155 30.8141 117.155C29.5438 116.806 28.312 117.026 27.3217 117.658C18.0962 121.577 7.71068 127.111 7.71068 127.111C5.21379 128.685 6.43386 134.111 8.52437 136.704C10.6149 139.296 17.6388 148.345 20.1272 146.768C20.1272 146.768 22.8768 137.869 26.6548 134.716C28.5847 134.511 32.132 131.987 35.1174 129.53C38.6515 130.835 43.3575 132.304 48.0876 132.943L50.9921 138.813C52.3727 141.602 55.4271 143.353 57.8135 142.718C60.1998 142.083 60.523 141.256 59.1425 138.467Z" fill="#DEC29B"/>
<path d="M59.9657 141.01C59.9928 140.406 59.7113 139.597 59.1527 138.471L55.6766 128.516C54.6577 126.449 52.7119 124.956 50.8113 124.582C46.0806 122.863 39.5794 120.437 35.2928 118.84C34.2513 117.935 32.7473 117.516 31.3483 117.36C31.0083 117.235 30.8233 117.159 30.8233 117.159C29.553 116.809 28.3211 117.029 27.3308 117.662C18.1049 121.58 7.71901 127.114 7.71901 127.114C5.22202 128.688 6.44212 134.115 8.5327 136.707C10.6233 139.3 17.6474 148.349 20.1359 146.772C20.1359 146.772 21.1844 143.398 22.8675 140.065C23.7957 137.833 24.9598 135.663 26.3289 134.306C28.4109 133.925 32.0514 130.829 35.0855 127.859C39.0564 129.041 44.3155 130.307 49.5389 130.654L53.2348 136.981C54.7419 139.583 57.5773 141.213 59.9657 141.01Z" fill="#D3AF85"/>
<path d="M67.5067 134.374L63.0382 121.582C61.724 118.925 59.2291 117.014 56.7805 116.523C50.7069 114.312 42.3528 111.206 36.8464 109.144C35.5111 107.982 33.5822 107.441 31.7735 107.242C31.34 107.083 31.1041 106.988 31.1041 106.988C29.4769 106.541 27.8825 106.819 26.6172 107.633C14.7611 112.661 1.41816 119.774 1.41816 119.774C-1.78339 121.794 -0.22355 128.765 2.45788 132.097C5.14991 135.424 14.1645 147.054 17.3661 145.034C17.3661 145.034 20.9026 133.601 25.7547 129.547C28.2339 129.287 32.7881 126.036 36.6213 122.887C41.1564 124.567 47.2095 126.447 53.2835 127.273L57.0164 134.816C58.7865 138.394 62.713 140.648 65.7776 139.83C68.8421 139.013 69.2768 137.952 67.5067 134.374Z" fill="#DEC29B"/>
<path d="M68.5519 137.637C68.5889 136.862 68.2301 135.826 67.5088 134.375L63.0403 121.582C61.726 118.926 59.231 117.015 56.7824 116.523C50.7086 114.312 42.3543 111.206 36.8477 109.145C35.5123 107.983 33.5833 107.441 31.7747 107.242C31.3411 107.083 31.1052 106.988 31.1052 106.988C29.4779 106.541 27.8835 106.819 26.6182 107.633C14.7617 112.661 1.41837 119.774 1.41837 119.774C-1.78328 121.795 -0.22342 128.765 2.45808 132.097C5.15018 135.425 14.165 147.055 17.3667 145.034C17.3667 145.034 18.7102 140.698 20.873 136.412C22.0617 133.546 23.5562 130.758 25.3161 129.005C27.9982 128.52 32.6703 124.541 36.5666 120.726C41.6613 122.246 48.4306 123.874 55.1248 124.322L59.8767 132.446C61.8411 135.797 65.4827 137.897 68.5519 137.637Z" fill="#D3AF85"/>
<path d="M73.226 127.92L67.1941 113.974C65.5186 111.115 62.6239 109.162 59.9062 108.802C53.0698 106.803 43.6583 103.966 37.4564 102.085C35.8922 100.887 33.7355 100.434 31.74 100.349C31.2544 100.203 30.9775 100.118 30.9775 100.118C29.1573 99.7395 27.449 100.175 26.1366 101.179C13.6338 107.705 -0.305158 116.66 -0.305158 116.66C-3.62127 119.162 -1.29154 126.831 1.94156 130.337C5.18318 133.846 16.079 146.143 19.4037 143.643C19.4037 143.643 22.2391 130.606 27.1701 125.707C29.8588 125.225 34.5427 121.249 38.4488 117.435C43.556 118.964 50.3419 120.603 57.0526 121.06L61.8155 129.199C64.0759 133.062 68.5606 135.276 71.8464 134.133C75.1194 133.003 75.4864 131.783 73.226 127.92Z" fill="#DEC29B"/>
<path d="M27.3476 138.205C27.3476 138.205 23.0442 149.321 35.5705 158.862C23.1934 152.783 16.8552 136.844 19.2533 128.579C21.6601 120.318 27.3476 138.205 27.3476 138.205Z" fill="#D3AF85"/>
<path d="M79.3763 91.7669C78.7521 95.2305 74.461 97.0935 69.7999 95.9241L56.4023 92.564C51.7328 91.3914 48.4584 87.6343 49.0826 84.1707C49.7067 80.7071 53.9979 78.8441 58.6589 80.0135L74.4145 85.9123C79.0755 87.0817 80.0005 88.3033 79.3763 91.7669Z" fill="#EAD7B7"/>
<path d="M61.3936 85.3188C63.5481 89.4804 62.0464 93.2657 58.7881 94.9877C46.8632 101.279 31.5763 102.771 31.5763 102.771C27.9879 103.944 23.3299 101.523 21.1776 97.3541C19.0232 93.1925 20.1926 88.866 23.7831 87.6853C23.7831 87.6853 43.3027 83.574 54.4592 81.0617C58.2052 80.2064 59.2414 81.1497 61.3936 85.3188Z" fill="#EAD7B7"/>
<path d="M27.4114 87.8598C30.9973 90.2785 36.0269 90.2292 34.6006 94.5001C33.0027 99.285 27.4125 113.512 23.9527 116.003C21.0563 122.995 21.9571 137.669 21.9571 137.669C19.8096 141.551 7.61577 132.902 4.02987 130.483C0.44398 128.064 -3.42785 120.966 -1.2825 117.091C-1.2825 117.091 8.31448 102.122 17.2083 90.4825C17.9724 89.4799 23.8255 85.4411 27.4114 87.8598Z" fill="#EAD7B7"/>
<path d="M11.9351 118.982C17.9964 121.42 23.5341 122.18 23.238 126.61C22.2665 141.458 30.203 153.842 36.7365 155.769C46.8212 158.749 11.6002 187.395 0.351699 188.606C-12.9503 190.034 -21.8208 180.011 -17.7668 167.951L-5.45289 119.743C-3.83712 114.871 2.88431 117.344 7.36143 116.855L11.9351 118.982Z" fill="#EAD7B7"/>
<path d="M17.792 196.047C28.1478 194.706 36.9157 190.825 44.4672 187.542C47.3574 186.284 57.8248 180.741 65.7122 177.808L78.384 166.185C80.1111 164.213 87.1277 161.854 85.437 157.346C83.7462 152.838 76.2952 150.65 71.8048 151.594C64.3854 153.156 59.3965 160.51 55.4689 161.509C32.2535 156.712 27.3034 156.153 27.3034 156.153C21.9946 156.756 -18.9682 170.585 -16.3975 177.44C-13.8349 184.289 12.5054 196.727 17.792 196.047Z" fill="#EAD7B7"/>
<path d="M34.4712 179.833C24.8542 199.11 -1.2748 196.308 -12.714 186.224C-24.1533 176.139 -16.3146 163.494 -10.7791 145.637C-7.71574 135.748 1.10753 158.717 23.8547 145.169C29.5053 155.051 31.5845 157.223 45.0359 160.493C47.2032 159.607 42.4172 163.892 34.4712 179.833Z" fill="#EAD7B7"/>
<path d="M-16.5356 160.364C-19.7647 181.48 -24.6735 186.536 -28.3009 191.383L2.23883 226.841C2.23883 226.841 7.93579 211.059 26.5797 184.378C5.20491 165.901 -16.5356 160.364 -16.5356 160.364Z" fill="#EAD7B7"/>
<path d="M-5.32775 237.998L13.3033 210.172L-23.6827 188.801L-52.5414 220.651L-5.32775 237.998Z" fill="#84B5FF"/>
<g filter="url(#filter0_d)">
<path d="M43.3315 129.797C42.8839 129.636 42.5901 129.205 42.6285 128.77C42.6534 128.722 42.6717 128.661 42.6873 128.61L52.062 97.5064C52.5633 96.2917 53.1414 96.4996 53.6636 96.6874C54.3444 96.9322 55.5475 97.6038 57.4103 99.4108L59.8468 101.749L59.9509 101.404C60.9224 102.021 61.9583 102.527 63.0494 102.92C66.6115 104.201 70.3377 104.117 73.5584 102.696C76.779 101.274 79.0912 98.6851 80.0831 95.4013C82.1294 88.627 77.8184 80.9613 70.4797 78.322C69.3793 77.9262 68.2705 77.6612 67.1532 77.5269L67.26 77.1736L64.0217 77.49C62.2006 77.6663 60.7287 77.5765 59.7683 77.2311C59.0596 76.9762 58.8609 76.6755 58.7783 76.4355C58.6689 76.1477 58.6637 75.7541 58.754 75.3184L68.0703 44.4427C68.0859 44.391 68.1041 44.3307 68.1104 44.2756C68.3167 43.9007 68.7782 43.7418 69.2258 43.9028L102.847 55.9755C104.645 56.4594 106.152 56.2275 107.162 55.3485C108.384 54.2785 108.828 52.3646 108.485 49.6328L108.55 49.6562L108.224 48.0674C107.882 46.4253 107.94 44.8313 108.401 43.3057C109.174 40.746 110.973 38.727 113.49 37.6161C116.007 36.5052 118.908 36.4497 121.677 37.4457C127.403 39.5049 130.757 45.4791 129.161 50.7624C128.703 52.2793 127.878 53.607 126.708 54.7057L125.571 55.768L125.636 55.7915C123.751 57.8559 123.03 59.6606 123.445 61.3002C123.682 62.2264 124.412 63.54 126.566 64.4866L160.353 76.6283C160.865 76.8127 161.168 77.3515 161.025 77.8255L151.663 108.886C151.153 111.464 152.35 113.49 154.849 114.389C155.94 114.781 157.301 114.965 158.904 114.929L158.885 114.99L160.525 114.834C162.218 114.669 163.91 114.886 165.551 115.476C171.277 117.535 174.631 123.509 173.035 128.793C172.262 131.353 170.463 133.371 167.946 134.482C165.441 135.588 162.528 135.649 159.759 134.653C158.108 134.059 156.63 133.136 155.367 131.908L154.137 130.71L154.119 130.771C152.746 129.599 151.513 128.821 150.375 128.412C147.942 127.536 146.004 128.407 145.054 130.798L135.639 162.001C135.496 162.475 134.959 162.712 134.446 162.527L100.694 150.408C99.3666 149.806 99.528 149.272 99.6738 148.789C99.8639 148.16 100.448 147.08 102.167 145.463L104.385 143.356L104.012 143.221C104.565 142.35 104.995 141.406 105.3 140.397C107.346 133.623 103.035 125.957 95.6963 123.318C92.1342 122.037 88.408 122.121 85.1873 123.542C81.9666 124.964 79.6545 127.553 78.6626 130.837C78.358 131.845 78.1891 132.883 78.1586 133.942L77.7763 133.805L78.4302 136.945C78.7963 138.71 78.8503 140.106 78.5796 141.002C78.3817 141.657 78.085 141.818 77.8408 141.873C77.5489 141.95 77.1353 141.916 76.668 141.786L43.3315 129.797Z" fill="#276ED8"/>
</g>
<defs>
<filter id="filter0_d" x="30.6251" y="28.7385" width="154.807" height="149.852" filterUnits="userSpaceOnUse" color-interpolation-filters="sRGB">
<feFlood flood-opacity="0" result="BackgroundImageFix"/>
<feColorMatrix in="SourceAlpha" type="matrix" values="0 0 0 0 0 0 0 0 0 0 0 0 0 0 0 0 0 0 127 0" result="hardAlpha"/>
<feOffset dy="4"/>
<feGaussianBlur stdDeviation="6"/>
<feColorMatrix type="matrix" values="0 0 0 0 0.160784 0 0 0 0 0.0941176 0 0 0 0 0.435294 0 0 0 0.25 0"/>
<feBlend mode="normal" in2="BackgroundImageFix" result="effect1_dropShadow"/>
<feBlend mode="normal" in="SourceGraphic" in2="effect1_dropShadow" result="shape"/>
</filter>
</defs>
</svg>
